<svg width="24" height="30" viewBox="0 0 24 30" fill="none" xmlns="http://www.w3.org/2000/svg">
<g clip-path="url(#clip0_16_121)">
<path d="M12.1072 17.2762C13.1396 16.8196 14.9509 16.1536 17.5411 15.2786C17.6683 15.228 18.002 15.114 18.5422 14.936C19.4635 14.1878 20.226 13.6265 20.8304 13.2524C21.434 12.8786 21.871 12.6911 22.1413 12.6911C22.475 12.6911 22.7211 12.7738 22.88 12.9384C23.0384 13.1033 23.1182 13.3568 23.1182 13.6994C23.1182 13.9914 23.0623 14.4033 22.9512 14.936C23.6342 15.6208 23.9761 16.1283 23.9761 16.458C23.9761 16.7372 23.8807 16.9497 23.6902 17.0952C23.4996 17.2411 23.2137 17.314 22.8322 17.314C22.6417 17.314 22.3516 17.2348 21.9624 17.0762C21.5727 16.9179 21.0765 16.6863 20.4728 16.3818C19.0109 16.5976 16.9136 17.2509 14.181 18.3414C14.5303 18.5062 14.7846 18.6268 14.9438 18.7027C15.8972 19.1339 17.0728 19.711 18.471 20.4339C18.6455 20.5229 19.043 20.7131 19.6626 21.0048C22.5541 21.2711 24.0004 21.8545 24.0004 22.7551C24.0004 23.3387 23.2219 23.7318 21.6648 23.9345C20.9341 24.6446 20.33 25 19.8535 25C19.2816 25 18.7253 24.4036 18.185 23.2116C18.1373 23.0851 18.0501 22.9009 17.9229 22.6598C15.6981 21.2015 13.6963 20.0979 11.917 19.3497C9.73997 20.3265 7.72248 21.4932 5.86344 22.85C5.60916 24.2833 5.0689 24.9997 4.24266 24.9997C3.71844 24.9997 3.11442 24.5937 2.43136 23.7821C0.810578 23.7821 0.00037384 23.4274 0.00037384 22.7167C0.00037384 22.1967 0.30201 21.8196 0.906027 21.5848C1.50967 21.3503 2.78072 21.1187 4.71917 20.8905C6.1703 20.0411 7.89324 19.1911 9.88687 18.3414C7.20943 17.2759 5.02602 16.6229 3.33701 16.3818C2.93955 16.661 2.57453 16.8702 2.24046 17.0098C1.90676 17.1494 1.59692 17.219 1.31094 17.219C0.897452 17.219 0.583884 17.1494 0.369496 17.0098C0.155107 16.8705 0.0477258 16.6673 0.0477258 16.4012C0.0477258 16.1604 0.397087 15.672 1.09655 14.9363C0.937719 14.4164 0.858302 14.0232 0.858302 13.7568C0.858302 13.3765 0.953752 13.0943 1.14428 12.9104C1.33481 12.7268 1.61258 12.6345 1.97834 12.6345C2.34374 12.6345 2.82024 12.8247 3.40823 13.2054C3.99584 13.5857 4.70313 14.1631 5.52937 14.9366C7.35634 15.4562 9.5487 16.2363 12.1072 17.2762Z" fill="#FFE99B"/>
<path d="M16.5165 22.4191L15.9207 24.3024L14.4666 25.3107C14.2134 25.7039 13.8767 25.9988 13.4569 26.1952C13.0375 26.392 12.5427 26.4902 11.973 26.4902C10.8328 26.4902 10.0017 26.0973 9.47898 25.3107L8.01628 24.3024L7.41711 22.4191L8.28026 22.2479C8.37534 22.4381 8.44655 22.5842 8.49428 22.6854C8.8593 23.3577 9.25937 23.8015 9.69597 24.017C10.1326 24.2327 10.8581 24.3405 11.8738 24.3405C13.0162 24.3405 13.8052 24.239 14.2418 24.036C14.6784 23.8333 15.0788 23.383 15.4438 22.6854C15.4916 22.5839 15.5624 22.4381 15.6579 22.2479L16.5165 22.4191Z" fill="#E6B60C"/>
<path d="M17.9505 9.57917C16.4091 8.52649 14.3995 8 11.9208 8C9.44206 8 7.43202 8.52649 5.89103 9.57917C4.34967 10.6321 3.57936 12.008 3.57936 13.7074C3.57936 15.1661 3.82544 16.2253 4.31798 16.8845C4.95331 17.7723 5.29522 18.3685 5.34294 18.6729L5.65278 20.2708L9.0047 21.5455L9.48382 22.5158C9.78471 22.592 10.1408 22.6521 10.5524 22.6964C10.964 22.7411 11.423 22.7631 11.9297 22.7631C12.9588 22.7631 13.7738 22.6807 14.3756 22.5158L14.8525 21.5455L18.1891 20.2708L18.499 18.6729C18.5623 18.3685 18.6421 18.1402 18.7372 17.9881C19.754 16.5932 20.2625 15.1664 20.2625 13.7077C20.2625 12.008 19.4915 10.6318 17.9505 9.57917ZM8.45289 18.6345C7.12629 18.6345 6.46298 18.0256 6.46298 16.808C6.46298 16.225 6.6345 15.7872 6.97826 15.4952C7.32166 15.2036 7.83731 15.0577 8.52485 15.0577C9.81938 15.0577 10.467 15.597 10.467 16.6747C10.467 17.9815 9.79552 18.6345 8.45289 18.6345ZM12.6076 21.2015C12.4323 21.2015 12.2418 21.1509 12.0356 21.0494C11.829 21.1512 11.6381 21.2015 11.4637 21.2015C11.1777 21.2015 10.9592 21.1509 10.8082 21.0494C10.6572 20.9479 10.5819 20.7958 10.5819 20.5929C10.5819 20.4027 10.7724 20.1363 11.1538 19.7937C11.4554 19.5021 11.7496 19.1658 12.0356 18.7854C12.3055 19.1533 12.5994 19.4893 12.9174 19.7937C13.2988 20.1363 13.4893 20.3961 13.4893 20.5738C13.4897 20.9923 13.1952 21.2015 12.6076 21.2015ZM15.5195 18.6345C14.1847 18.6345 13.5173 18.0256 13.5173 16.808C13.5173 15.6414 14.2004 15.0577 15.5669 15.0577C16.2182 15.0577 16.7067 15.1908 17.0325 15.4571C17.358 15.7235 17.5213 16.1295 17.5213 16.6747C17.5217 17.9815 16.8543 18.6345 15.5195 18.6345Z" fill="#E6B60C"/>
</g>
<defs>
<clipPath id="clip0_16_121">
<rect width="24" height="30" fill="white"/>
</clipPath>
</defs>
</svg>
