<svg width="24" height="24" viewBox="0 0 24 24" fill="none" xmlns="http://www.w3.org/2000/svg">
<path d="M14.75 7C15.4404 7 16 6.44036 16 5.75C16 5.05964 15.4404 4.5 14.75 4.5C14.0596 4.5 13.5 5.05964 13.5 5.75C13.5 6.44036 14.0596 7 14.75 7Z" fill="#FFE99B"/>
<path d="M20.25 12.75C20.8023 12.75 21.25 12.3023 21.25 11.75C21.25 11.1977 20.8023 10.75 20.25 10.75C19.6977 10.75 19.25 11.1977 19.25 11.75C19.25 12.3023 19.6977 12.75 20.25 12.75Z" fill="#FFE99B"/>
<path d="M9.25 7C9.94036 7 10.5 6.44036 10.5 5.75C10.5 5.05964 9.94036 4.5 9.25 4.5C8.55964 4.5 8 5.05964 8 5.75C8 6.44036 8.55964 7 9.25 7Z" fill="#FFE99B"/>
<path d="M3.75 12.75C4.30228 12.75 4.75 12.3023 4.75 11.75C4.75 11.1977 4.30228 10.75 3.75 10.75C3.19772 10.75 2.75 11.1977 2.75 11.75C2.75 12.3023 3.19772 12.75 3.75 12.75Z" fill="#FFE99B"/>
<path d="M22.95 16.05L22.075 13.975C21.775 13.55 21.3 13.225 20.775 13.075C20.625 13.025 20.425 13 20.25 13C19.9 13 19.575 13.075 19.275 13.225L17.75 12.15L16.85 8.4C16.825 8.3 16.75 8.175 16.675 8.125C16.375 7.9 16.025 7.725 15.65 7.625C15.35 7.55 15.05 7.5 14.75 7.5C14.45 7.5 14.15 7.55 13.875 7.625C13.5 7.725 13.15 7.9 12.85 8.125C12.75 8.2 12.7 8.3 12.675 8.4L12 11.1L11.35 8.4C11.325 8.3 11.25 8.175 11.175 8.125C10.875 7.9 10.525 7.725 10.15 7.625C9.85001 7.55 9.55001 7.5 9.25001 7.5C8.95001 7.5 8.65001 7.55 8.37501 7.625C8.00001 7.725 7.65001 7.9 7.35001 8.125C7.25001 8.2 7.20001 8.3 7.17501 8.4L6.27501 12.15L4.75001 13.225C4.42501 13.075 4.10001 13 3.75001 13C3.57501 13 3.37501 13.025 3.22501 13.075C2.70001 13.2 2.22501 13.525 1.92501 13.975L1.05001 16.05C0.950009 16.275 1.02501 16.525 1.20001 16.675C1.30001 16.725 1.40001 16.75 1.50001 16.75C1.70001 16.75 1.87501 16.625 1.95001 16.45L2.50001 15.15V16.5V19.5H3.50001V16.5H4.00001V19.5H5.00001V14.25H5.02501L7.00001 12.875C7.10001 12.8 7.17501 12.7 7.20001 12.575L8.00001 9.25V19.5H9.00001V13.75H9.50001V19.5H10.5V9.25L11.525 13.375C11.575 13.6 11.775 13.75 12 13.75C12.225 13.75 12.425 13.6 12.475 13.375L13.5 9.25V11.35L12.625 15H13.5V19.5H14.5V15H15V19.5H16V15H16.875L16 11.35V9.25L16.825 12.575C16.85 12.7 16.925 12.8 17.025 12.875L19.025 14.275V15.825L18.5 17.25H19V19.5H20V17.25H20.5V19.5H21.5V17.25H22L21.525 15.925V15.15L22.075 16.45C22.15 16.65 22.35 16.75 22.525 16.75C22.625 16.75 22.725 16.725 22.825 16.65C22.975 16.525 23.05 16.25 22.95 16.05Z" fill="#E6B60C"/>
</svg>
