<svg width="24" height="24" viewBox="0 0 24 24" fill="none" xmlns="http://www.w3.org/2000/svg">
<g clip-path="url(#clip0_16_75)">
<path d="M10.6125 9.77813L8.6625 6.65156C8.41875 6.26719 7.88906 6.1875 7.53281 6.47812C6.13125 7.60781 5.16094 9.25312 4.92656 11.1281C4.87031 11.5875 5.2125 12 5.67188 12H9.375C9.375 11.0625 9.87187 10.2469 10.6125 9.77813ZM12 13.5C12.8283 13.5 13.5 12.8283 13.5 12C13.5 11.1717 12.8283 10.5 12 10.5C11.1703 10.5 10.5 11.1703 10.5 12C10.5 12.8297 11.1703 13.5 12 13.5ZM13.3875 14.2172C12.9422 14.4703 12.5109 14.625 12 14.625C11.4895 14.625 11.0166 14.4726 10.6134 14.2195L8.65687 17.3508C8.41261 17.7416 8.58127 18.2447 8.99766 18.4425C9.90938 18.8766 10.9266 19.125 12 19.125C13.0767 19.125 14.0925 18.875 15.0056 18.4411C15.422 18.2433 15.5906 17.7403 15.346 17.3494L13.3875 14.2172ZM16.4719 6.47812C16.1154 6.19008 15.5878 6.26634 15.345 6.65484L13.3898 9.78C14.1281 10.2469 14.625 11.0625 14.625 12H18.3263C18.7877 12 19.1283 11.5879 19.072 11.13C18.8391 9.25781 17.8734 7.6125 16.4719 6.47812ZM12 0.75C5.78437 0.75 0.75 5.78437 0.75 12C0.75 18.2156 5.78437 23.25 12 23.25C18.2156 23.25 23.25 18.2156 23.25 12C23.25 5.78437 18.2156 0.75 12 0.75ZM12 20.25C7.45078 20.25 3.75 16.5473 3.75 12C3.75 7.45266 7.41094 3.75 12 3.75C16.5891 3.75 20.25 7.45078 20.25 12C20.25 16.5492 16.5469 20.25 12 20.25Z" fill="#E5B60C"/>
</g>
<defs>
<clipPath id="clip0_16_75">
<rect width="24" height="24" fill="white"/>
</clipPath>
</defs>
</svg>
