<svg width="28" height="30" viewBox="0 0 28 30" fill="none" xmlns="http://www.w3.org/2000/svg">
<path opacity="0.2" d="M20 17H1V21.1667C1 21.3877 1.10009 21.5996 1.27825 21.7559C1.45641 21.9122 1.69804 22 1.95 22H4.325C4.325 21.337 4.62527 20.7011 5.15975 20.2322C5.69422 19.7634 6.41913 19.5 7.175 19.5C7.93087 19.5 8.65578 19.7634 9.19025 20.2322C9.72473 20.7011 10.025 21.337 10.025 22H18.575C18.5747 21.5609 18.7062 21.1294 18.9564 20.7491C19.2065 20.3687 19.5665 20.0529 20 19.8333V17Z" fill="#E6B60C"/>
<path opacity="0.2" d="M23.9375 22C23.9378 21.5318 23.8167 21.0717 23.5864 20.6661C23.3562 20.2604 23.0248 19.9236 22.6257 19.6893C22.2266 19.4551 21.7738 19.3317 21.3129 19.3316C20.852 19.3315 20.3992 19.4548 20 19.6889V14H27V21.1111C27 21.3469 26.9078 21.573 26.7437 21.7397C26.5796 21.9064 26.3571 22 26.125 22H23.9375Z" fill="#E6B60C"/>
<path d="M20 9.00002H24.6594C24.8337 8.99872 25.0043 9.05772 25.1488 9.16927C25.2932 9.28081 25.4048 9.43969 25.4688 9.62502L27 14" stroke="#E6B60C" stroke-width="2" stroke-linecap="round" stroke-linejoin="round"/>
<path d="M1 17H20" stroke="#E6B60C" stroke-width="2" stroke-linecap="round" stroke-linejoin="round"/>
<path d="M20.5 25C21.8807 25 23 23.8807 23 22.5C23 21.1193 21.8807 20 20.5 20C19.1193 20 18 21.1193 18 22.5C18 23.8807 19.1193 25 20.5 25Z" stroke="#E6B60C" stroke-width="2" stroke-miterlimit="10"/>
<path d="M8 25C9.65685 25 11 23.8807 11 22.5C11 21.1193 9.65685 20 8 20C6.34315 20 5 21.1193 5 22.5C5 23.8807 6.34315 25 8 25Z" stroke="#E6B60C" stroke-width="2" stroke-miterlimit="10"/>
<path d="M18 22H11" stroke="#E6B60C" stroke-width="2" stroke-linecap="round" stroke-linejoin="round"/>
<path d="M4.325 22H1.95C1.69804 22 1.45641 21.9012 1.27825 21.7254C1.10009 21.5496 1 21.3111 1 21.0625V7.9375C1 7.68886 1.10009 7.4504 1.27825 7.27459C1.45641 7.09877 1.69804 7 1.95 7H20V19.5625" stroke="#E6B60C" stroke-width="2" stroke-linecap="round" stroke-linejoin="round"/>
<path d="M20 14H27V21.1111C27 21.3469 26.9078 21.573 26.7437 21.7397C26.5796 21.9064 26.3571 22 26.125 22H23.9375" stroke="#E6B60C" stroke-width="2" stroke-linecap="round" stroke-linejoin="round"/>
</svg>
