<svg width="32" height="23" viewBox="0 0 32 23" fill="none" xmlns="http://www.w3.org/2000/svg">
<path d="M31.3307 3.59215C31.1499 2.89748 30.7934 2.26347 30.2968 1.75359C29.8003 1.24371 29.1811 0.875854 28.5013 0.686879C26.0067 -1.82409e-07 16 0 16 0C16 0 5.99333 -1.82409e-07 3.49733 0.686879C2.81788 0.876191 2.19906 1.24417 1.70277 1.75401C1.20648 2.26386 0.850122 2.89771 0.669333 3.59215C0 6.15466 0 11.5 0 11.5C0 11.5 0 16.8454 0.669333 19.4079C0.850115 20.1026 1.20663 20.7366 1.70319 21.2464C2.19974 21.7563 2.8189 22.1241 3.49867 22.3132C5.99333 23 16 23 16 23C16 23 26.0067 23 28.5027 22.3132C29.1825 22.1243 29.8017 21.7565 30.2983 21.2466C30.7949 20.7367 31.1513 20.1026 31.332 19.4079C32 16.8454 32 11.5 32 11.5C32 11.5 32 6.15466 31.3307 3.59215ZM12.7267 16.353V6.64706L21.0907 11.5L12.7267 16.353Z" fill="white"/>
</svg>
