<svg width="24" height="24" viewBox="0 0 24 24" fill="none" xmlns="http://www.w3.org/2000/svg">
<g clip-path="url(#clip0_16_112)">
<path d="M12 6.5C11.172 6.5 10.5 7.172 10.5 8V11.9L9.444 12.9552C9.069 13.3302 9 13.6835 9 14C9 14.828 9.672 15.5 10.5 15.5C10.9335 15.5 11.28 15.3193 11.544 15.056L13.0972 13.5035C13.32 13.2808 13.5 12.9335 13.5 12.5V8C13.5 7.172 12.828 6.5 12 6.5ZM12 2C6.201 2 1.5 6.701 1.5 12.5C1.5 14.8632 2.2905 17.0375 3.60825 18.7925L1.93575 20.465C1.64475 20.7545 1.5 21.1017 1.5 21.5C1.5 22.391 2.262 23 3 23C3.387 23 3.7395 22.8605 4.035 22.565L5.7075 20.8925C7.4625 22.2095 9.63675 23 12 23C14.3632 23 16.5375 22.2095 18.2925 20.8918L19.965 22.5643C20.2605 22.8605 20.613 23 21 23C21.738 23 22.5 22.3902 22.5 21.5C22.5 21.1017 22.3553 20.7545 22.065 20.465L20.3925 18.7925C21.7095 17.0375 22.5 14.8632 22.5 12.5C22.5 6.701 17.799 2 12 2ZM12 20C7.8585 20 4.5 16.6415 4.5 12.5C4.5 8.3585 7.8585 5 12 5C16.1415 5 19.5 8.3585 19.5 12.5C19.5 16.6415 16.1415 20 12 20ZM19.5 -1C17.9025 -1 16.503 -0.16525 15.7042 1.0895C18.654 2.04575 21.1035 4.10825 22.5585 6.794C23.4435 5.97275 24 4.802 24 3.5C24 1.01525 21.9848 -1 19.5 -1ZM8.29575 1.0895C7.497 -0.16525 6.0975 -1 4.5 -1C2.01525 -1 0 1.01525 0 3.5C0 4.802 0.5565 5.97275 1.4415 6.79475C2.89575 4.109 5.346 2.0465 8.29575 1.0895Z" fill="#E6B60C"/>
</g>
<defs>
<clipPath id="clip0_16_112">
<rect width="24" height="24" fill="white"/>
</clipPath>
</defs>
</svg>
