<svg width="265" height="31" viewBox="0 0 265 31" fill="black" xmlns="http://www.w3.org/2000/svg">
<path d="M12.0156 24H7.0625L7.09375 20.3438H12.0156C13.2448 20.3438 14.2812 20.0677 15.125 19.5156C15.9688 18.9531 16.6042 18.1354 17.0312 17.0625C17.4688 15.9896 17.6875 14.6927 17.6875 13.1719V12.0625C17.6875 10.8958 17.5625 9.86979 17.3125 8.98438C17.0729 8.09896 16.7135 7.35417 16.2344 6.75C15.7552 6.14583 15.1667 5.69271 14.4688 5.39062C13.7708 5.07812 12.9688 4.92188 12.0625 4.92188H6.96875L10 2L12.0625 1.25C13.5833 1.25 14.974 1.51042 16.2344 2.03125C17.5052 2.54167 16.7604 5.04167 17.6875 6C18.6146 6.95833 21.1719 6.33854 21.6719 7.67188C22.1823 8.99479 22.4375 10.4688 22.4375 12.0938V13.1719C22.4375 14.7865 22.1823 16.2604 21.6719 17.5938C21.1719 18.9271 20.4583 20.0729 19.5312 21.0312C18.6146 21.9792 17.5156 22.7135 16.2344 23.2344C14.9635 23.7448 13.5573 24 12.0156 24ZM9.71875 1.25L0 13.9375L9.71875 24H5.03125V1.25H9.71875Z" fill="black"/>
<path d="M33.3438 24.3125C32.0312 24.3125 30.8542 24.1042 29.8125 23.6875C28.7708 23.2604 27.8854 22.6719 27.1562 21.9219C26.4375 21.1719 25.8854 20.3021 25.5 19.3125C25.1146 18.3125 24.9219 17.25 24.9219 16.125V15.5C24.9219 14.2188 25.1042 13.0469 25.4688 11.9844C25.8333 10.9219 26.3542 10 27.0312 9.21875C27.7188 8.4375 28.5521 7.83854 29.5312 7.42188C30.5104 6.99479 31.6146 6.78125 32.8438 6.78125C34.0417 6.78125 35.1042 6.97917 36.0312 7.375C36.9583 7.77083 37.7344 8.33333 38.3594 9.0625C38.9948 9.79167 39.474 10.6667 39.7969 11.6875C40.1198 12.6979 40.2812 13.8229 40.2812 15.0625V16.9375H26.8438V13.9375H35.8594V13.5938C35.8594 12.9688 35.7448 12.4115 35.5156 11.9219C35.2969 11.4219 34.9635 11.026 34.5156 10.7344C34.0677 10.4427 33.4948 10.2969 32.7969 10.2969C32.2031 10.2969 31.6927 10.4271 31.2656 10.6875C30.8385 10.9479 30.4896 11.3125 30.2188 11.7812C29.9583 12.25 29.7604 12.8021 29.625 13.4375C29.5 14.0625 29.4375 14.75 29.4375 15.5V16.125C29.4375 16.8021 29.5312 17.4271 29.7188 18C29.9167 18.5729 30.1927 19.0677 30.5469 19.4844C30.9115 19.901 31.349 20.224 31.8594 20.4531C32.3802 20.6823 32.9688 20.7969 33.625 20.7969C34.4375 20.7969 35.1927 20.6406 35.8906 20.3281C36.599 20.0052 37.2083 19.5208 37.7188 18.875L39.9062 21.25C39.5521 21.7604 39.0677 22.25 38.4531 22.7188C37.849 23.1875 37.1198 23.5729 36.2656 23.875C35.4115 24.1667 34.4375 24.3125 33.3438 24.3125Z" fill="black"/>
<path d="M51.9844 19.3281C51.9844 19.0052 51.8906 18.7135 51.7031 18.4531C51.5156 18.1927 51.1667 17.9531 50.6562 17.7344C50.1562 17.5052 49.4323 17.2969 48.4844 17.1094C47.6302 16.9219 46.8333 16.6875 46.0938 16.4062C45.3646 16.1146 44.7292 15.7656 44.1875 15.3594C43.6562 14.9531 43.2396 14.474 42.9375 13.9219C42.6354 13.3594 42.4844 12.7188 42.4844 12C42.4844 11.2917 42.6354 10.625 42.9375 10C43.25 9.375 43.6927 8.82292 44.2656 8.34375C44.849 7.85417 45.5573 7.47396 46.3906 7.20312C47.2344 6.92188 48.1823 6.78125 49.2344 6.78125C50.7031 6.78125 51.9635 7.01562 53.0156 7.48438C54.0781 7.95312 54.8906 8.59896 55.4531 9.42188C56.026 10.2344 56.3125 11.1615 56.3125 12.2031H51.8125C51.8125 11.7656 51.7188 11.375 51.5312 11.0312C51.3542 10.6771 51.0729 10.401 50.6875 10.2031C50.3125 9.99479 49.8229 9.89062 49.2188 9.89062C48.7188 9.89062 48.2865 9.97917 47.9219 10.1562C47.5573 10.3229 47.276 10.5521 47.0781 10.8438C46.8906 11.125 46.7969 11.4375 46.7969 11.7812C46.7969 12.0417 46.849 12.276 46.9531 12.4844C47.0677 12.6823 47.25 12.8646 47.5 13.0312C47.75 13.1979 48.0729 13.3542 48.4688 13.5C48.875 13.6354 49.375 13.7604 49.9688 13.875C51.1875 14.125 52.276 14.4531 53.2344 14.8594C54.1927 15.2552 54.9531 15.7969 55.5156 16.4844C56.0781 17.1615 56.3594 18.0521 56.3594 19.1562C56.3594 19.9062 56.1927 20.5938 55.8594 21.2188C55.526 21.8438 55.0469 22.3906 54.4219 22.8594C53.7969 23.3177 53.0469 23.6771 52.1719 23.9375C51.3073 24.1875 50.3333 24.3125 49.25 24.3125C47.6771 24.3125 46.3438 24.0312 45.25 23.4688C44.1667 22.9062 43.3438 22.1927 42.7812 21.3281C42.2292 20.4531 41.9531 19.5573 41.9531 18.6406H46.2188C46.2396 19.2552 46.3958 19.75 46.6875 20.125C46.9896 20.5 47.3698 20.7708 47.8281 20.9375C48.2969 21.1042 48.8021 21.1875 49.3438 21.1875C49.9271 21.1875 50.4115 21.1094 50.7969 20.9531C51.1823 20.7865 51.474 20.5677 51.6719 20.2969C51.8802 20.0156 51.9844 19.6927 51.9844 19.3281Z" fill="black"/>
<path d="M66.2656 20.7969C66.8177 20.7969 67.3073 20.6927 67.7344 20.4844C68.1615 20.2656 68.4948 19.9635 68.7344 19.5781C68.9844 19.1823 69.1146 18.7188 69.125 18.1875H73.3594C73.349 19.375 73.0312 20.4323 72.4062 21.3594C71.7812 22.276 70.9427 23 69.8906 23.5312C68.8385 24.0521 67.6615 24.3125 66.3594 24.3125C65.0469 24.3125 63.901 24.0938 62.9219 23.6562C61.9531 23.2188 61.1458 22.6146 60.5 21.8438C59.8542 21.0625 59.3698 20.1562 59.0469 19.125C58.724 18.0833 58.5625 16.9688 58.5625 15.7812V15.3281C58.5625 14.1302 58.724 13.0156 59.0469 11.9844C59.3698 10.9427 59.8542 10.0365 60.5 9.26562C61.1458 8.48438 61.9531 7.875 62.9219 7.4375C63.8906 7 65.026 6.78125 66.3281 6.78125C67.7135 6.78125 68.9271 7.04688 69.9688 7.57812C71.0208 8.10938 71.8438 8.86979 72.4375 9.85938C73.0417 10.8385 73.349 12 73.3594 13.3438H69.125C69.1146 12.7812 68.9948 12.2708 68.7656 11.8125C68.5469 11.3542 68.224 10.9896 67.7969 10.7188C67.3802 10.4375 66.8646 10.2969 66.25 10.2969C65.5938 10.2969 65.0573 10.4375 64.6406 10.7188C64.224 10.9896 63.901 11.3646 63.6719 11.8438C63.4427 12.3125 63.2812 12.849 63.1875 13.4531C63.1042 14.0469 63.0625 14.6719 63.0625 15.3281V15.7812C63.0625 16.4375 63.1042 17.0677 63.1875 17.6719C63.2708 18.276 63.4271 18.8125 63.6562 19.2812C63.8958 19.75 64.224 20.1198 64.6406 20.3906C65.0573 20.6615 65.599 20.7969 66.2656 20.7969Z" fill="black"/>
<path d="M75.25 15.7188V15.3906C75.25 14.151 75.4271 13.0104 75.7812 11.9688C76.1354 10.9167 76.651 10.0052 77.3281 9.23438C78.0052 8.46354 78.8385 7.86458 79.8281 7.4375C80.8177 7 81.9531 6.78125 83.2344 6.78125C84.5156 6.78125 85.6562 7 86.6562 7.4375C87.6562 7.86458 88.4948 8.65104 89.1719 9.42188C89.8594 10.1927 90.3802 10.9167 90.7344 11.9688C91.0885 13.0104 91.2656 14.151 91.2656 15.3906V15.7188C91.2656 16.9479 91.0885 18.0885 90.7344 19.1406C90.3802 20.1823 89.8594 21.0938 89.1719 21.875C88.4948 22.6458 87.6615 23.2448 86.6719 23.6719C85.6823 24.099 84.5469 24.3125 83.2656 24.3125C81.9844 24.3125 80.8438 24.099 79.8438 23.6719C78.8542 23.2448 78.0156 22.6458 77.3281 21.875C76.651 21.0938 76.1354 20.1823 75.7812 19.1406C75.4271 18.0885 75.25 16.9479 75.25 15.7188ZM79.75 15.3906V15.7188C79.75 16.4271 79.8125 17.0885 79.9375 17.7031C80.0625 18.3177 80.2604 18.8594 80.5312 19.3281C80.8125 19.7865 81.1771 20.1458 81.625 20.4062C82.0729 20.6667 82.6198 20.7969 83.2656 20.7969C83.8906 20.7969 84.4271 20.6667 84.875 20.4062C85.3229 20.1458 85.6823 19.7865 85.9531 19.3281C86.224 18.8594 86.4219 18.3177 86.5469 17.7031C86.6823 17.0885 86.75 16.4271 86.75 15.7188V15.3906C86.75 14.7031 86.6823 14.0573 86.5469 13.4531C86.4219 12.8385 86.2188 12.2969 85.9375 11.8281C85.6667 11.349 85.3073 10.974 84.8594 10.7031C84.4115 10.4323 83.8698 10.2969 83.2344 10.2969C82.599 10.2969 82.0573 10.4323 81.6094 10.7031C81.1719 10.974 80.8125 11.349 80.5312 11.8281C80.2604 12.2969 80.0625 12.8385 79.9375 13.4531C79.8125 14.0573 79.75 14.7031 79.75 15.3906Z" fill="black"/>
<path d="M98.5312 10.5938V24H94.0156V7.09375H98.25L98.5312 10.5938ZM97.9062 14.9531H96.6562C96.6562 13.776 96.7969 12.6927 97.0781 11.7031C97.3698 10.7031 97.7917 9.83854 98.3438 9.10938C98.9062 8.36979 99.599 7.79688 100.422 7.39062C101.245 6.98438 102.198 6.78125 103.281 6.78125C104.031 6.78125 104.719 6.89583 105.344 7.125C105.969 7.34375 106.505 7.69271 106.953 8.17188C107.411 8.64062 107.766 9.25521 108.016 10.0156C108.266 10.7656 108.391 11.6667 108.391 12.7188V24H103.891V13.2188C103.891 12.4479 103.786 11.8542 103.578 11.4375C103.37 11.0208 103.073 10.7292 102.688 10.5625C102.312 10.3958 101.859 10.3125 101.328 10.3125C100.745 10.3125 100.234 10.4323 99.7969 10.6719C99.3698 10.9115 99.0156 11.2448 98.7344 11.6719C98.4531 12.0885 98.2448 12.5781 98.1094 13.1406C97.974 13.7031 97.9062 14.3073 97.9062 14.9531ZM107.969 14.4375L106.359 14.6406C106.359 13.5365 106.495 12.5104 106.766 11.5625C107.047 10.6146 107.458 9.78125 108 9.0625C108.552 8.34375 109.234 7.78646 110.047 7.39062C110.859 6.98438 111.797 6.78125 112.859 6.78125C113.672 6.78125 114.411 6.90104 115.078 7.14062C115.745 7.36979 116.312 7.73958 116.781 8.25C117.26 8.75 117.625 9.40625 117.875 10.2188C118.135 11.0312 118.266 12.026 118.266 13.2031V24H113.75V13.2031C113.75 12.4219 113.646 11.8281 113.438 11.4219C113.24 11.0052 112.948 10.7188 112.562 10.5625C112.188 10.3958 111.74 10.3125 111.219 10.3125C110.677 10.3125 110.203 10.4219 109.797 10.6406C109.391 10.849 109.052 11.1406 108.781 11.5156C108.51 11.8906 108.307 12.3281 108.172 12.8281C108.036 13.3177 107.969 13.8542 107.969 14.4375Z" fill="black"/>
<path d="M126.25 10.3438V30.5H121.75V7.09375H125.922L126.25 10.3438ZM136.953 15.3594V15.6875C136.953 16.9167 136.807 18.0573 136.516 19.1094C136.234 20.1615 135.818 21.0781 135.266 21.8594C134.714 22.6302 134.026 23.2344 133.203 23.6719C132.391 24.099 131.453 24.3125 130.391 24.3125C129.359 24.3125 128.464 24.1042 127.703 23.6875C126.943 23.2708 126.302 22.6875 125.781 21.9375C125.271 21.1771 124.859 20.2969 124.547 19.2969C124.234 18.2969 123.995 17.224 123.828 16.0781V15.2188C123.995 13.9896 124.234 12.8646 124.547 11.8438C124.859 10.8125 125.271 9.92188 125.781 9.17188C126.302 8.41146 126.938 7.82292 127.688 7.40625C128.448 6.98958 129.339 6.78125 130.359 6.78125C131.432 6.78125 132.375 6.98438 133.188 7.39062C134.01 7.79688 134.698 8.38021 135.25 9.14062C135.812 9.90104 136.234 10.8073 136.516 11.8594C136.807 12.9115 136.953 14.0781 136.953 15.3594ZM132.438 15.6875V15.3594C132.438 14.6406 132.375 13.9792 132.25 13.375C132.135 12.7604 131.948 12.224 131.688 11.7656C131.438 11.3073 131.104 10.9531 130.688 10.7031C130.281 10.4427 129.786 10.3125 129.203 10.3125C128.589 10.3125 128.062 10.4115 127.625 10.6094C127.198 10.8073 126.849 11.0938 126.578 11.4688C126.307 11.8438 126.104 12.2917 125.969 12.8125C125.833 13.3333 125.75 13.9219 125.719 14.5781V16.75C125.771 17.5208 125.917 18.2135 126.156 18.8281C126.396 19.4323 126.766 19.9115 127.266 20.2656C127.766 20.6198 128.422 20.7969 129.234 20.7969C129.828 20.7969 130.328 20.6667 130.734 20.4062C131.141 20.1354 131.469 19.7656 131.719 19.2969C131.979 18.8281 132.161 18.2865 132.266 17.6719C132.38 17.0573 132.438 16.3958 132.438 15.6875Z" fill="black"/>
<path d="M144.5 0V24H139.984V0H144.5Z" fill="black"/>
<path d="M152.969 7.09375V24H148.453V7.09375H152.969ZM148.172 2.6875C148.172 2.03125 148.401 1.48958 148.859 1.0625C149.318 0.635417 149.932 0.421875 150.703 0.421875C151.464 0.421875 152.073 0.635417 152.531 1.0625C153 1.48958 153.234 2.03125 153.234 2.6875C153.234 3.34375 153 3.88542 152.531 4.3125C152.073 4.73958 151.464 4.95312 150.703 4.95312C149.932 4.95312 149.318 4.73958 148.859 4.3125C148.401 3.88542 148.172 3.34375 148.172 2.6875Z" fill="black"/>
<path d="M163.672 20.7969C164.224 20.7969 164.714 20.6927 165.141 20.4844C165.568 20.2656 165.901 19.9635 166.141 19.5781C166.391 19.1823 166.521 18.7188 166.531 18.1875H170.766C170.755 19.375 170.438 20.4323 169.812 21.3594C169.188 22.276 168.349 23 167.297 23.5312C166.245 24.0521 165.068 24.3125 163.766 24.3125C162.453 24.3125 161.307 24.0938 160.328 23.6562C159.359 23.2188 158.552 22.6146 157.906 21.8438C157.26 21.0625 156.776 20.1562 156.453 19.125C156.13 18.0833 155.969 16.9688 155.969 15.7812V15.3281C155.969 14.1302 156.13 13.0156 156.453 11.9844C156.776 10.9427 157.26 10.0365 157.906 9.26562C158.552 8.48438 159.359 7.875 160.328 7.4375C161.297 7 162.432 6.78125 163.734 6.78125C165.12 6.78125 166.333 7.04688 167.375 7.57812C168.427 8.10938 169.25 8.86979 169.844 9.85938C170.448 10.8385 170.755 12 170.766 13.3438H166.531C166.521 12.7812 166.401 12.2708 166.172 11.8125C165.953 11.3542 165.63 10.9896 165.203 10.7188C164.786 10.4375 164.271 10.2969 163.656 10.2969C163 10.2969 162.464 10.4375 162.047 10.7188C161.63 10.9896 161.307 11.3646 161.078 11.8438C160.849 12.3125 160.688 12.849 160.594 13.4531C160.51 14.0469 160.469 14.6719 160.469 15.3281V15.7812C160.469 16.4375 160.51 17.0677 160.594 17.6719C160.677 18.276 160.833 18.8125 161.062 19.2812C161.302 19.75 161.63 20.1198 162.047 20.3906C162.464 20.6615 163.005 20.7969 163.672 20.7969Z" fill="black"/>
<path d="M182.5 20.1875V12.6562C182.5 12.1146 182.411 11.651 182.234 11.2656C182.057 10.8698 181.781 10.5625 181.406 10.3438C181.042 10.125 180.568 10.0156 179.984 10.0156C179.484 10.0156 179.052 10.1042 178.688 10.2812C178.323 10.4479 178.042 10.6927 177.844 11.0156C177.646 11.3281 177.547 11.6979 177.547 12.125H173.047C173.047 11.4062 173.214 10.724 173.547 10.0781C173.88 9.43229 174.365 8.86458 175 8.375C175.635 7.875 176.391 7.48438 177.266 7.20312C178.151 6.92188 179.141 6.78125 180.234 6.78125C181.547 6.78125 182.714 7 183.734 7.4375C184.755 7.875 185.557 8.53125 186.141 9.40625C186.734 10.2812 187.031 11.375 187.031 12.6875V19.9219C187.031 20.849 187.089 21.6094 187.203 22.2031C187.318 22.7865 187.484 23.2969 187.703 23.7344V24H183.156C182.938 23.5417 182.771 22.9688 182.656 22.2812C182.552 21.5833 182.5 20.8854 182.5 20.1875ZM183.094 13.7031L183.125 16.25H180.609C180.016 16.25 179.5 16.3177 179.062 16.4531C178.625 16.5885 178.266 16.7812 177.984 17.0312C177.703 17.2708 177.495 17.5521 177.359 17.875C177.234 18.1979 177.172 18.5521 177.172 18.9375C177.172 19.3229 177.26 19.6719 177.438 19.9844C177.615 20.2865 177.87 20.526 178.203 20.7031C178.536 20.8698 178.927 20.9531 179.375 20.9531C180.052 20.9531 180.641 20.8177 181.141 20.5469C181.641 20.276 182.026 19.9427 182.297 19.5469C182.578 19.151 182.724 18.776 182.734 18.4219L183.922 20.3281C183.755 20.7552 183.526 21.1979 183.234 21.6562C182.953 22.1146 182.594 22.5469 182.156 22.9531C181.719 23.349 181.193 23.6771 180.578 23.9375C179.964 24.1875 179.234 24.3125 178.391 24.3125C177.318 24.3125 176.344 24.099 175.469 23.6719C174.604 23.2344 173.917 22.6354 173.406 21.875C172.906 21.1042 172.656 20.2292 172.656 19.25C172.656 18.3646 172.823 17.5781 173.156 16.8906C173.49 16.2031 173.979 15.625 174.625 15.1562C175.281 14.6771 176.099 14.3177 177.078 14.0781C178.057 13.8281 179.193 13.7031 180.484 13.7031H183.094Z" fill="black"/>
<path d="M195 7.5L201.812 24H196.828L205.281 1.25H208.453L195 7.5ZM213.141 24L206.938 5.14062L206.438 1.25H209.641L213.141 12.6875L218.141 24H213.141ZM212.859 15.5312V19.2031H200.844V15.5312H212.859Z" fill="black"/>
<path d="M227.234 24H222.281L222.312 20.3438H227.234C228.464 20.3438 229.5 20.0677 230.344 19.5156C231.188 18.9531 231.823 18.1354 232.25 17.0625C232.688 15.9896 232.906 14.6927 232.906 13.1719V12.0625C232.906 10.8958 232.781 9.86979 232.531 8.98438C232.292 8.09896 231.932 7.35417 231.453 6.75C230.974 6.14583 230.385 5.69271 229.688 5.39062C228.99 5.07812 228.188 4.92188 227.281 4.92188H222.188V1.25H227.281C228.802 1.25 230.193 1.51042 231.453 2.03125C232.724 2.54167 233.823 3.27604 234.75 4.23438C235.677 5.19271 236.391 6.33854 236.891 7.67188C237.401 8.99479 237.656 10.4688 237.656 12.0938V13.1719C237.656 14.7865 237.401 16.2604 236.891 17.5938C236.391 18.9271 235.677 20.0729 234.75 21.0312C233.833 21.9792 232.734 22.7135 231.453 23.2344C230.182 23.7448 228.776 24 227.234 24ZM224.938 1.25L215.5 12.6875L224.938 24H220.25V1.25H224.938Z" fill="black"/>
<path d="M243.203 1.25H247.172V17.5312L258.859 1.25H262.828L254.609 24H251.422L243.203 1.25ZM241.062 1.25H245.016L238.5 17.0625L245.734 24H241.062V1.25ZM261.016 1.25H264.984V24H260.297V17.5312L261.016 1.25Z" fill="black"/>
</svg>
