<svg width="352" height="40" viewBox="0 0 352 40" fill="none" xmlns="http://www.w3.org/2000/svg">
<path d="M15.9613 31.4754H9.38169L9.4232 26.6803H15.9613C17.5941 26.6803 18.9709 26.3183 20.0918 25.5943C21.2126 24.8566 22.0566 23.7842 22.624 22.377C23.2051 20.9699 23.4957 19.2691 23.4957 17.2746V15.8197C23.4957 14.2896 23.3297 12.944 22.9976 11.7828C22.6793 10.6216 22.2019 9.64481 21.5654 8.85246C20.9289 8.06011 20.1471 7.46585 19.22 7.06967C18.2929 6.65984 17.2274 6.45492 16.0236 6.45492H9.25715L13.2838 2.62295L16.0236 1.63934C18.0438 1.63934 19.8911 1.98087 21.5654 2.66393C23.2536 3.33333 22.2642 6.61202 23.4957 7.86885C24.7272 9.12568 28.1243 8.31284 28.7885 10.0615C29.4665 11.7964 29.8055 13.7295 29.8055 15.8607V17.2746C29.8055 19.3921 29.4665 21.3251 28.7885 23.0738C28.1243 24.8224 27.1764 26.3251 25.9449 27.582C24.7272 28.8251 23.2674 29.7883 21.5654 30.4713C19.8773 31.1407 18.0092 31.4754 15.9613 31.4754ZM12.9102 1.63934L0 18.2787L12.9102 31.4754H6.68341V1.63934H12.9102Z" fill="white"/>
<path d="M44.2932 31.8852C42.5497 31.8852 40.9861 31.612 39.6023 31.0656C38.2186 30.5055 37.0424 29.7336 36.0738 28.75C35.1191 27.7664 34.3857 26.6257 33.8737 25.3279C33.3617 24.0164 33.1057 22.623 33.1057 21.1475V20.3279C33.1057 18.6475 33.3479 17.1107 33.8322 15.7172C34.3165 14.3238 35.0084 13.1148 35.9078 12.0902C36.821 11.0656 37.928 10.2801 39.2287 9.73361C40.5294 9.1735 41.9962 8.89344 43.629 8.89344C45.2203 8.89344 46.6317 9.15301 47.8632 9.67213C49.0947 10.1913 50.1256 10.929 50.9558 11.8852C51.7999 12.8415 52.4364 13.9891 52.8654 15.3279C53.2943 16.653 53.5088 18.1284 53.5088 19.7541V22.2131H35.6587V18.2787H47.6349V17.8279C47.6349 17.0082 47.4827 16.2773 47.1783 15.6352C46.8877 14.9795 46.4449 14.4604 45.8499 14.0779C45.2549 13.6954 44.4938 13.5041 43.5667 13.5041C42.778 13.5041 42.1 13.6749 41.5326 14.0164C40.9653 14.3579 40.5018 14.8361 40.142 15.4508C39.7961 16.0656 39.5331 16.7896 39.3533 17.623C39.1872 18.4426 39.1042 19.3443 39.1042 20.3279V21.1475C39.1042 22.0355 39.2287 22.8552 39.4778 23.6066C39.7407 24.3579 40.1074 25.0068 40.5779 25.5533C41.0622 26.0997 41.6433 26.5232 42.3214 26.8238C43.0132 27.1243 43.795 27.2746 44.6668 27.2746C45.7461 27.2746 46.7493 27.0697 47.6764 26.6598C48.6173 26.2363 49.4268 25.6011 50.1048 24.7541L53.0107 27.8689C52.5402 28.5383 51.8968 29.1803 51.0804 29.7951C50.2778 30.4098 49.3092 30.9153 48.1745 31.3115C47.0399 31.694 45.7461 31.8852 44.2932 31.8852Z" fill="white"/>
<path d="M69.055 25.3484C69.055 24.9249 68.9305 24.5423 68.6814 24.2008C68.4323 23.8593 67.9688 23.5451 67.2908 23.2582C66.6266 22.9576 65.6649 22.6844 64.4057 22.4385C63.271 22.1926 62.2125 21.8852 61.23 21.5164C60.2614 21.1339 59.4173 20.6762 58.6978 20.1434C57.9921 19.6107 57.4386 18.9822 57.0373 18.2582C56.636 17.5205 56.4354 16.6803 56.4354 15.7377C56.4354 14.8087 56.636 13.9344 57.0373 13.1148C57.4524 12.2951 58.0405 11.571 58.8016 10.9426C59.5765 10.3005 60.5174 9.80191 61.6244 9.44672C62.7452 9.07787 64.0044 8.89344 65.402 8.89344C67.353 8.89344 69.0273 9.20082 70.4249 9.81557C71.8363 10.4303 72.9156 11.2773 73.6628 12.3566C74.4239 13.4221 74.8044 14.638 74.8044 16.0041H68.8267C68.8267 15.4303 68.7022 14.918 68.4531 14.4672C68.2179 14.0027 67.8443 13.6407 67.3323 13.3811C66.8341 13.1079 66.1838 12.9713 65.3812 12.9713C64.717 12.9713 64.1428 13.0874 63.6585 13.3197C63.1742 13.5383 62.8006 13.8388 62.5377 14.2213C62.2886 14.5902 62.164 15 62.164 15.4508C62.164 15.7923 62.2332 16.0997 62.3716 16.373C62.5238 16.6325 62.766 16.8716 63.0981 17.0902C63.4302 17.3087 63.8591 17.5137 64.3849 17.7049C64.9246 17.8825 65.5888 18.0464 66.3775 18.1967C67.9965 18.5246 69.4425 18.9549 70.7155 19.4877C71.9885 20.0068 72.9986 20.7172 73.7459 21.6189C74.4931 22.5068 74.8667 23.6749 74.8667 25.123C74.8667 26.1066 74.6453 27.0082 74.2025 27.8279C73.7597 28.6475 73.1232 29.3648 72.2929 29.9795C71.4627 30.5806 70.4664 31.0519 69.3041 31.3934C68.1556 31.7213 66.8618 31.8852 65.4227 31.8852C63.3333 31.8852 61.5621 31.5164 60.1092 30.7787C58.6701 30.041 57.577 29.1052 56.8298 27.9713C56.0964 26.8238 55.7297 25.6489 55.7297 24.4467H61.3961C61.4237 25.2527 61.6313 25.9016 62.0188 26.3934C62.42 26.8852 62.9251 27.2404 63.5339 27.459C64.1566 27.6776 64.8277 27.7869 65.5473 27.7869C66.3222 27.7869 66.9656 27.6844 67.4776 27.4795C67.9895 27.2609 68.377 26.974 68.6399 26.6189C68.9166 26.25 69.055 25.8265 69.055 25.3484Z" fill="white"/>
<path d="M88.0259 27.2746C88.7593 27.2746 89.4097 27.138 89.977 26.8648C90.5443 26.5779 90.9871 26.1817 91.3054 25.6762C91.6375 25.1571 91.8104 24.5492 91.8243 23.8525H97.4491C97.4353 25.4098 97.0133 26.7964 96.183 28.0123C95.3528 29.2145 94.2389 30.1639 92.8413 30.8607C91.4438 31.5437 89.8801 31.8852 88.1505 31.8852C86.407 31.8852 84.8849 31.5984 83.5842 31.0246C82.2973 30.4508 81.2249 29.6585 80.367 28.6475C79.5091 27.6229 78.8657 26.4344 78.4367 25.082C78.0077 23.7158 77.7933 22.2541 77.7933 20.6967V20.1025C77.7933 18.5314 78.0077 17.0697 78.4367 15.7172C78.8657 14.3511 79.5091 13.1626 80.367 12.1516C81.2249 11.127 82.2973 10.3279 83.5842 9.7541C84.871 9.18033 86.3793 8.89344 88.109 8.89344C89.9493 8.89344 91.5614 9.2418 92.9451 9.93852C94.3427 10.6352 95.4358 11.6325 96.2245 12.9303C97.0271 14.2145 97.4353 15.7377 97.4491 17.5H91.8243C91.8104 16.7623 91.6513 16.0929 91.3469 15.4918C91.0563 14.8907 90.6274 14.4126 90.06 14.0574C89.5065 13.6885 88.8216 13.5041 88.0052 13.5041C87.1334 13.5041 86.4208 13.6885 85.8673 14.0574C85.3138 14.4126 84.8849 14.9044 84.5805 15.5328C84.276 16.1475 84.0616 16.8511 83.937 17.6434C83.8263 18.4221 83.771 19.2418 83.771 20.1025V20.6967C83.771 21.5574 83.8263 22.3839 83.937 23.1762C84.0477 23.9686 84.2553 24.6721 84.5597 25.2869C84.878 25.9016 85.3138 26.3866 85.8673 26.7418C86.4208 27.097 87.1404 27.2746 88.0259 27.2746Z" fill="white"/>
<path d="M99.9606 20.6148V20.1844C99.9606 18.5587 100.196 17.0628 100.666 15.6967C101.137 14.3169 101.822 13.1216 102.721 12.1107C103.621 11.0997 104.728 10.3142 106.042 9.7541C107.357 9.18033 108.865 8.89344 110.567 8.89344C112.269 8.89344 113.784 9.18033 115.112 9.7541C116.441 10.3142 117.555 11.3456 118.454 12.3566C119.367 13.3675 120.059 14.3169 120.53 15.6967C121 17.0628 121.235 18.5587 121.235 20.1844V20.6148C121.235 22.2268 121 23.7227 120.53 25.1025C120.059 26.4686 119.367 27.6639 118.454 28.6885C117.555 29.6995 116.448 30.485 115.133 31.0451C113.819 31.6052 112.31 31.8852 110.608 31.8852C108.906 31.8852 107.391 31.6052 106.063 31.0451C104.748 30.485 103.634 29.6995 102.721 28.6885C101.822 27.6639 101.137 26.4686 100.666 25.1025C100.196 23.7227 99.9606 22.2268 99.9606 20.6148ZM105.938 20.1844V20.6148C105.938 21.5437 106.021 22.4112 106.187 23.2172C106.353 24.0232 106.616 24.7336 106.976 25.3484C107.35 25.9495 107.834 26.4208 108.429 26.7623C109.024 27.1038 109.75 27.2746 110.608 27.2746C111.439 27.2746 112.151 27.1038 112.746 26.7623C113.341 26.4208 113.819 25.9495 114.178 25.3484C114.538 24.7336 114.801 24.0232 114.967 23.2172C115.147 22.4112 115.237 21.5437 115.237 20.6148V20.1844C115.237 19.2828 115.147 18.4358 114.967 17.6434C114.801 16.8374 114.531 16.127 114.158 15.5123C113.798 14.8839 113.321 14.3921 112.726 14.0369C112.131 13.6817 111.411 13.5041 110.567 13.5041C109.723 13.5041 109.003 13.6817 108.408 14.0369C107.827 14.3921 107.35 14.8839 106.976 15.5123C106.616 16.127 106.353 16.8374 106.187 17.6434C106.021 18.4358 105.938 19.2828 105.938 20.1844Z" fill="white"/>
<path d="M130.887 13.8934V31.4754H124.888V9.30328H130.513L130.887 13.8934ZM130.057 19.6107H128.396C128.396 18.0669 128.583 16.6462 128.957 15.3484C129.344 14.0369 129.905 12.903 130.638 11.9467C131.385 10.9768 132.305 10.2254 133.398 9.69262C134.492 9.15984 135.758 8.89344 137.197 8.89344C138.193 8.89344 139.106 9.04372 139.937 9.34426C140.767 9.63115 141.479 10.0888 142.074 10.7172C142.683 11.332 143.154 12.138 143.486 13.1352C143.818 14.1189 143.984 15.3005 143.984 16.6803V31.4754H138.006V17.3361C138.006 16.3251 137.868 15.5464 137.591 15C137.314 14.4536 136.92 14.071 136.408 13.8525C135.91 13.6339 135.308 13.5246 134.602 13.5246C133.827 13.5246 133.149 13.6817 132.568 13.9959C132.001 14.3101 131.53 14.7473 131.157 15.3074C130.783 15.8538 130.506 16.4959 130.327 17.2336C130.147 17.9713 130.057 18.7637 130.057 19.6107ZM143.424 18.9344L141.286 19.2008C141.286 17.7527 141.466 16.4071 141.825 15.1639C142.199 13.9208 142.746 12.8279 143.465 11.8852C144.198 10.9426 145.105 10.2117 146.184 9.69262C147.263 9.15984 148.509 8.89344 149.92 8.89344C150.999 8.89344 151.982 9.05055 152.868 9.36475C153.753 9.6653 154.507 10.1503 155.13 10.8197C155.766 11.4754 156.251 12.3361 156.583 13.4016C156.929 14.4672 157.102 15.7719 157.102 17.3156V31.4754H151.103V17.3156C151.103 16.291 150.965 15.5123 150.688 14.9795C150.425 14.4331 150.038 14.0574 149.526 13.8525C149.028 13.6339 148.433 13.5246 147.741 13.5246C147.021 13.5246 146.392 13.668 145.852 13.9549C145.312 14.2281 144.863 14.6107 144.503 15.1025C144.143 15.5943 143.873 16.168 143.693 16.8238C143.513 17.4658 143.424 18.1694 143.424 18.9344Z" fill="white"/>
<path d="M167.708 13.5656V40H161.73V9.30328H167.272L167.708 13.5656ZM181.926 20.1434V20.5738C181.926 22.1858 181.732 23.6817 181.345 25.0615C180.971 26.4413 180.418 27.6434 179.684 28.668C178.951 29.679 178.038 30.4713 176.944 31.0451C175.865 31.6052 174.62 31.8852 173.208 31.8852C171.838 31.8852 170.648 31.612 169.638 31.0656C168.628 30.5191 167.777 29.7541 167.085 28.7705C166.407 27.7732 165.861 26.6189 165.446 25.3074C165.03 23.9959 164.712 22.5888 164.491 21.0861V19.959C164.712 18.347 165.03 16.8716 165.446 15.5328C165.861 14.1803 166.407 13.0123 167.085 12.0287C167.777 11.0314 168.621 10.2596 169.618 9.71311C170.628 9.16667 171.811 8.89344 173.167 8.89344C174.592 8.89344 175.844 9.15984 176.924 9.69262C178.017 10.2254 178.93 10.9904 179.663 11.9877C180.411 12.985 180.971 14.1735 181.345 15.5533C181.732 16.9331 181.926 18.4631 181.926 20.1434ZM175.927 20.5738V20.1434C175.927 19.2008 175.844 18.3333 175.678 17.541C175.526 16.735 175.277 16.0314 174.931 15.4303C174.599 14.8292 174.156 14.3648 173.603 14.0369C173.063 13.6954 172.406 13.5246 171.631 13.5246C170.814 13.5246 170.116 13.6544 169.535 13.9139C168.967 14.1735 168.504 14.5492 168.144 15.041C167.784 15.5328 167.514 16.1202 167.334 16.8033C167.155 17.4863 167.044 18.2582 167.002 19.1189V21.9672C167.071 22.9781 167.265 23.8866 167.583 24.6926C167.902 25.485 168.393 26.1134 169.057 26.5779C169.721 27.0423 170.593 27.2746 171.672 27.2746C172.461 27.2746 173.125 27.1038 173.665 26.7623C174.205 26.4071 174.64 25.9221 174.973 25.3074C175.319 24.6926 175.561 23.9822 175.699 23.1762C175.851 22.3702 175.927 21.5027 175.927 20.5738Z" fill="white"/>
<path d="M191.951 0V31.4754H185.952V0H191.951Z" fill="white"/>
<path d="M203.201 9.30328V31.4754H197.202V9.30328H203.201ZM196.829 3.52459C196.829 2.66393 197.133 1.95355 197.742 1.39344C198.351 0.833333 199.167 0.553279 200.191 0.553279C201.201 0.553279 202.011 0.833333 202.619 1.39344C203.242 1.95355 203.554 2.66393 203.554 3.52459C203.554 4.38525 203.242 5.09563 202.619 5.65574C202.011 6.21585 201.201 6.4959 200.191 6.4959C199.167 6.4959 198.351 6.21585 197.742 5.65574C197.133 5.09563 196.829 4.38525 196.829 3.52459Z" fill="white"/>
<path d="M217.418 27.2746C218.152 27.2746 218.802 27.138 219.37 26.8648C219.937 26.5779 220.38 26.1817 220.698 25.6762C221.03 25.1571 221.203 24.5492 221.217 23.8525H226.842C226.828 25.4098 226.406 26.7964 225.576 28.0123C224.745 29.2145 223.631 30.1639 222.234 30.8607C220.836 31.5437 219.273 31.8852 217.543 31.8852C215.8 31.8852 214.277 31.5984 212.977 31.0246C211.69 30.4508 210.617 29.6585 209.76 28.6475C208.902 27.6229 208.258 26.4344 207.829 25.082C207.4 23.7158 207.186 22.2541 207.186 20.6967V20.1025C207.186 18.5314 207.4 17.0697 207.829 15.7172C208.258 14.3511 208.902 13.1626 209.76 12.1516C210.617 11.127 211.69 10.3279 212.977 9.7541C214.264 9.18033 215.772 8.89344 217.502 8.89344C219.342 8.89344 220.954 9.2418 222.338 9.93852C223.735 10.6352 224.828 11.6325 225.617 12.9303C226.42 14.2145 226.828 15.7377 226.842 17.5H221.217C221.203 16.7623 221.044 16.0929 220.739 15.4918C220.449 14.8907 220.02 14.4126 219.453 14.0574C218.899 13.6885 218.214 13.5041 217.398 13.5041C216.526 13.5041 215.813 13.6885 215.26 14.0574C214.706 14.4126 214.277 14.9044 213.973 15.5328C213.669 16.1475 213.454 16.8511 213.33 17.6434C213.219 18.4221 213.164 19.2418 213.164 20.1025V20.6967C213.164 21.5574 213.219 22.3839 213.33 23.1762C213.44 23.9686 213.648 24.6721 213.952 25.2869C214.27 25.9016 214.706 26.3866 215.26 26.7418C215.813 27.097 216.533 27.2746 217.418 27.2746Z" fill="white"/>
<path d="M242.429 26.4754V16.5984C242.429 15.888 242.312 15.2801 242.077 14.7746C241.841 14.2555 241.475 13.8525 240.976 13.5656C240.492 13.2787 239.863 13.1352 239.088 13.1352C238.423 13.1352 237.849 13.2514 237.365 13.4836C236.881 13.7022 236.507 14.0232 236.244 14.4467C235.981 14.8566 235.85 15.3415 235.85 15.9016H229.872C229.872 14.959 230.093 14.0642 230.536 13.2172C230.979 12.3702 231.622 11.6257 232.467 10.9836C233.311 10.3279 234.314 9.81557 235.476 9.44672C236.652 9.07787 237.967 8.89344 239.42 8.89344C241.163 8.89344 242.713 9.18033 244.069 9.7541C245.425 10.3279 246.491 11.1885 247.266 12.3361C248.054 13.4836 248.449 14.918 248.449 16.6393V26.127C248.449 27.3429 248.525 28.3402 248.677 29.1189C248.829 29.8839 249.051 30.5533 249.341 31.127V31.4754H243.301C243.011 30.8743 242.789 30.1229 242.637 29.2213C242.499 28.306 242.429 27.3907 242.429 26.4754ZM243.218 17.9713L243.26 21.3115H239.918C239.129 21.3115 238.444 21.4003 237.863 21.5779C237.282 21.7555 236.805 22.0082 236.431 22.3361C236.057 22.6503 235.781 23.0191 235.601 23.4426C235.435 23.8661 235.352 24.3306 235.352 24.8361C235.352 25.3415 235.469 25.7992 235.704 26.209C235.94 26.6052 236.279 26.9194 236.722 27.1516C237.164 27.3702 237.683 27.4795 238.278 27.4795C239.178 27.4795 239.959 27.3019 240.624 26.9467C241.288 26.5915 241.8 26.1544 242.16 25.6352C242.533 25.1161 242.727 24.6243 242.741 24.1598L244.318 26.6598C244.097 27.2199 243.792 27.8005 243.405 28.4016C243.031 29.0027 242.554 29.5697 241.973 30.1025C241.392 30.6216 240.693 31.0519 239.876 31.3934C239.06 31.7213 238.091 31.8852 236.971 31.8852C235.545 31.8852 234.252 31.6052 233.089 31.0451C231.941 30.4713 231.027 29.6858 230.349 28.6885C229.685 27.6776 229.353 26.5301 229.353 25.2459C229.353 24.0847 229.575 23.0533 230.017 22.1516C230.46 21.25 231.11 20.4918 231.968 19.877C232.84 19.2486 233.926 18.7773 235.227 18.4631C236.528 18.1352 238.036 17.9713 239.752 17.9713H243.218Z" fill="white"/>
<path d="M259.034 9.83607L268.084 31.4754H261.463L272.692 1.63934H276.905L259.034 9.83607ZM283.132 31.4754L274.892 6.7418L274.227 1.63934H278.482L283.132 16.6393L289.774 31.4754H283.132ZM282.758 20.3689V25.1844H266.797V20.3689H282.758Z" fill="white"/>
<path d="M301.854 31.4754H295.274L295.316 26.6803H301.854C303.486 26.6803 304.863 26.3183 305.984 25.5943C307.105 24.8566 307.949 23.7842 308.516 22.377C309.097 20.9699 309.388 19.2691 309.388 17.2746V15.8197C309.388 14.2896 309.222 12.944 308.89 11.7828C308.572 10.6216 308.094 9.64481 307.458 8.85246C306.821 8.06011 306.039 7.46585 305.112 7.06967C304.185 6.65984 303.12 6.45492 301.916 6.45492H295.149V1.63934H301.916C303.936 1.63934 305.783 1.98087 307.458 2.66393C309.146 3.33333 310.606 4.29645 311.837 5.55328C313.069 6.81011 314.017 8.31284 314.681 10.0615C315.359 11.7964 315.698 13.7295 315.698 15.8607V17.2746C315.698 19.3921 315.359 21.3251 314.681 23.0738C314.017 24.8224 313.069 26.3251 311.837 27.582C310.62 28.8251 309.16 29.7883 307.458 30.4713C305.77 31.1407 303.902 31.4754 301.854 31.4754ZM298.803 1.63934L286.266 16.6393L298.803 31.4754H292.576V1.63934H298.803Z" fill="white"/>
<path d="M323.066 1.63934H328.338V22.9918L343.864 1.63934H349.136L338.218 31.4754H333.984L323.066 1.63934ZM320.223 1.63934H325.474L316.819 22.377L326.429 31.4754H320.223V1.63934ZM346.728 1.63934H352V31.4754H345.773V22.9918L346.728 1.63934Z" fill="white"/>
</svg>
