<svg width="24" height="22" viewBox="0 0 24 22" fill="none" xmlns="http://www.w3.org/2000/svg">
<g clip-path="url(#clip0_16_103)">
<path d="M14.2833 14.6958C14.5208 14.2958 14.6667 13.8333 14.6667 13.3333C14.6667 11.8625 13.4708 10.6667 12 10.6667C11.2833 10.6667 10.6333 10.9542 10.1542 11.4125C9.475 10.1792 8.175 9.33333 6.66667 9.33333C4.45833 9.33333 2.66667 11.125 2.66667 13.3333C2.66667 13.4167 2.6875 13.4917 2.69167 13.5708C1.12917 14.1167 0 15.5875 0 17.3333C0 19.5417 1.79167 21.3333 4 21.3333H14C15.8417 21.3333 17.3333 19.8417 17.3333 18C17.3333 16.2542 15.9875 14.8417 14.2833 14.6958ZM23.5542 12.4333C19.675 13.1708 16.1167 10.1958 16.1167 6.27917C16.1167 4.02083 17.325 1.94583 19.2875 0.829167C19.5917 0.658333 19.5125 0.2 19.1708 0.133333C18.6833 0.0458333 18.1958 0 17.7083 0C13.2958 0 9.7125 3.57917 9.7125 8C9.7125 8.35417 9.74167 8.7 9.7875 9.04167C10.0333 9.22083 10.2708 9.4125 10.4833 9.63333C10.9583 9.4375 11.4708 9.33333 12 9.33333C14.2042 9.33333 16 11.1292 16 13.3333C16 13.4833 15.9917 13.6333 15.975 13.7792C16.9583 14.2292 17.7417 15.0083 18.2042 15.9708C20.4708 15.8292 22.525 14.75 23.9167 13.0375C24.1375 12.7667 23.8958 12.3667 23.5542 12.4333Z" fill="#E6B60C"/>
</g>
<defs>
<clipPath id="clip0_16_103">
<rect width="24" height="21.3333" fill="white"/>
</clipPath>
</defs>
</svg>
